<svg width="163" height="40" viewBox="0 0 163 40" fill="none" xmlns="http://www.w3.org/2000/svg">
<path d="M21.0383 0C21.0903 0.0341546 21.1034 0.0385015 21.1102 0.0478164C22.3864 1.92942 23.7122 3.77998 24.6283 5.88204C25.7155 8.37533 26.2603 10.9692 26.111 13.6923C26.0081 15.5695 25.5699 17.3748 24.8632 19.1154C24.4573 20.1152 23.9719 21.0752 23.4252 22.0049C23.3595 22.1167 23.2839 22.2222 23.1872 22.3694C23.0577 22.1806 22.9567 22.0322 22.8556 21.8844C22.4794 21.3354 22.1081 20.7828 21.7238 20.24C21.6122 20.0829 21.5689 19.9183 21.5577 19.7333C21.4833 18.464 21.4071 17.1953 21.3302 15.9266C21.2385 14.4039 21.1437 12.8813 21.0544 11.3586C21.0426 11.1549 21.0525 10.95 21.1052 10.7351C21.629 13.4755 22.1534 16.216 22.692 19.034C22.7695 18.9036 22.816 18.8422 22.8451 18.7739C23.7407 16.701 24.2236 14.5436 24.1368 12.2776C24.0575 10.2054 23.5498 8.23126 22.6498 6.36952C22.2296 5.50013 21.7195 4.67421 21.2478 3.82966C21.2013 3.74645 21.1381 3.67193 21.0135 3.49495C20.9806 3.58499 20.9701 3.64957 20.9372 3.69925C19.718 5.55478 18.7778 7.5345 18.2943 9.71357C17.6708 12.5242 17.9218 15.269 18.9216 17.9572C19.542 19.6259 20.4383 21.1442 21.4294 22.6116C21.9104 23.3232 22.4 24.0299 22.8649 24.7521C23.7383 26.1072 24.3767 27.5634 24.6723 29.1568C25.0442 31.1627 24.823 33.1095 24.0736 35.0004C23.7153 35.9046 23.2529 36.7535 22.7193 37.5632C22.2333 38.301 21.7374 39.0319 21.2447 39.7653C21.1926 39.8423 21.1294 39.9118 21.0594 40C21.0104 39.9528 20.9695 39.9261 20.9453 39.8888C20.2102 38.7648 19.4342 37.6657 18.7536 36.5094C17.8455 34.965 17.3373 33.2809 17.2573 31.4787C17.1631 29.3599 17.7346 27.41 18.7468 25.5719C18.7815 25.5085 18.8205 25.447 18.8621 25.3874C18.8732 25.3713 18.9005 25.3657 18.9451 25.3427C19.0121 25.434 19.0852 25.5265 19.1509 25.624C19.4088 26.0047 19.648 26.3996 19.9257 26.7648C20.1228 27.0244 20.147 27.2417 20.0056 27.5479C19.534 28.5688 19.2792 29.6505 19.2433 30.7764C19.1881 32.4947 19.6666 34.0757 20.4953 35.563C20.6534 35.8474 20.83 36.1213 21.0122 36.4218C21.0699 36.3784 21.1145 36.3591 21.1368 36.3256C21.9643 35.0538 22.5705 33.6938 22.7806 32.1761C23.005 30.5609 22.7428 29.0177 22.1019 27.5298C21.7802 26.7822 21.3618 26.0891 20.9125 25.4123C20.1897 24.3237 19.4478 23.2462 18.761 22.1353C17.5617 20.1947 16.7032 18.1081 16.2637 15.862C15.6867 12.916 15.9451 10.0328 16.9474 7.20972C17.5462 5.52311 18.3736 3.95386 19.3623 2.46658C19.8581 1.72077 20.3583 0.978063 20.8585 0.235356C20.9106 0.157732 20.9726 0.086939 21.0395 0.00124199L21.0383 0Z" fill="white"/>
<path d="M18.1938 25.0959C17.843 25.1419 17.5238 25.1872 17.2034 25.2239C16.4236 25.3139 15.6451 25.4139 14.8641 25.4853C11.6546 25.7797 8.6274 25.2605 5.91317 23.4131C4.26752 22.2928 2.96278 20.8409 1.94316 19.1419C1.27809 18.0334 0.684291 16.8821 0.0595036 15.7494C0.0371897 15.7096 0.0285121 15.6618 0 15.5792C0.36446 15.5345 0.705985 15.4879 1.04875 15.4507C2.47622 15.2942 3.89749 15.0768 5.34231 15.1172C8.93484 15.2178 11.9881 16.52 14.4519 19.1642C15.3897 20.1702 16.1527 21.2998 16.816 22.5002C17.2368 23.2622 17.6465 24.0303 18.0593 24.7966C18.104 24.8792 18.1368 24.9674 18.1945 25.0953L18.1938 25.0959ZM3.12704 17.2323C4.34314 19.4145 5.84685 21.2023 8.02431 22.3431C9.83235 23.2907 11.7644 23.6205 13.7782 23.5404C13.7887 23.5155 13.7999 23.4901 13.8104 23.4652C11.8251 22.163 9.83979 20.8614 7.85509 19.5592C7.86873 19.535 7.88237 19.5114 7.896 19.4871C10.0109 20.4106 12.1257 21.334 14.2858 22.2779C13.7893 21.0626 11.654 19.0779 10.004 18.2532C7.84456 17.1739 5.55863 16.9665 3.12828 17.2329L3.12704 17.2323Z" fill="white"/>
<path d="M42.0822 15.5882C42.0617 15.659 42.0562 15.7199 42.0289 15.7683C41.3248 17.0227 40.6628 18.3038 39.9022 19.5228C38.8987 21.1306 37.5977 22.4738 36.0066 23.5202C34.3399 24.6162 32.5077 25.2459 30.5286 25.4601C29.1643 25.6079 27.8044 25.5769 26.4445 25.3968C25.7261 25.3018 25.0047 25.2347 24.285 25.1515C24.1685 25.1378 24.0545 25.1099 23.9336 25.0875C23.9485 25.0199 23.9485 24.9807 23.9646 24.9509C24.678 23.6742 25.3425 22.3657 26.121 21.13C27.2181 19.3887 28.6505 17.9598 30.4238 16.8898C32.0354 15.9173 33.7827 15.3765 35.6484 15.1883C37.0641 15.0455 38.4704 15.125 39.8756 15.315C40.5456 15.4056 41.2188 15.4727 41.8907 15.5516C41.9483 15.5584 42.0053 15.5733 42.0822 15.5882ZM28.2885 23.4643C28.2978 23.4903 28.3065 23.5164 28.3158 23.5425C30.6705 23.6288 32.8907 23.1718 34.8928 21.8615C36.6612 20.7046 37.9392 19.1148 38.9694 17.2307C36.2453 16.9333 33.704 17.2413 31.3653 18.6541C30.0185 19.4682 28.048 21.4616 27.8379 22.2651C29.9825 21.3405 32.0943 20.3953 34.2215 19.4849C34.2327 19.5079 34.2444 19.5315 34.2556 19.5545C32.2666 20.8573 30.2775 22.1608 28.2885 23.4636V23.4643Z" fill="white"/>
<path d="M31.3505 13.1157C29.9429 13.1095 28.8086 11.9588 28.8086 10.5367C28.8086 9.13203 29.9677 7.98443 31.3809 7.98878C32.791 7.99313 33.9166 9.13762 33.9197 10.569C33.9222 11.9811 32.7712 13.1225 31.3511 13.1163L31.3505 13.1157Z" fill="white"/>
<path d="M10.7385 13.1153C9.31727 13.1178 8.18546 11.9857 8.1836 10.5587C8.18112 9.1298 9.30735 7.9909 10.7255 7.9878C12.1406 7.98469 13.2811 9.12546 13.2836 10.5457C13.286 11.9727 12.1567 13.1129 10.7392 13.1153H10.7385Z" fill="white"/>
<path d="M32.4689 32.3773C30.9981 32.2463 29.6939 31.8426 28.5559 30.9769C27.2735 30.0014 26.5303 28.6737 26.0469 27.0933C27.4477 27.1939 28.6929 27.5814 29.7968 28.3669C31.1735 29.3468 31.9675 30.7242 32.4683 32.3773H32.4689Z" fill="white"/>
<path d="M16.0148 27.1281C15.2313 30.148 12.8419 32.2016 9.68945 32.3351C9.70557 31.5042 10.7357 29.7238 11.7138 28.8358C12.8332 27.8199 14.7857 27.0386 16.0148 27.1281Z" fill="white"/>
<path d="M162.651 28.9828H149.521V27.4412L160.544 11.6656H154.198C153.101 11.6656 152.283 11.8711 151.744 12.2822C151.204 12.6847 150.78 13.3528 150.472 14.2863H149.83L150.549 10.9976H162.394V11.6656L151.5 27.287H162.651V28.9828Z" fill="white"/>
<path d="M139.855 10.9976L146.92 28.9828H145.019L142.398 22.3025H134.459L131.967 28.9828H131.273L137.979 10.9976H139.855ZM135.102 20.761H141.808L138.39 11.9482L135.102 20.761Z" fill="white"/>
<path d="M119.554 10.9976L124.898 19.0909C127.099 16.1533 128.418 14.3462 128.855 13.6696C129.223 13.1044 129.407 12.6548 129.407 12.3208C129.407 11.8497 129.035 11.6142 128.289 11.6142V10.9976H131.321V11.4343L125.155 19.9131V28.9828H123.408V19.9902L117.627 10.9976H119.554Z" fill="white"/>
<path d="M110.786 10.9976L117.852 28.9828H115.951L113.33 22.3025H105.391L102.899 28.9828H102.205L108.911 10.9976H110.786ZM106.033 20.761H112.739L109.322 11.9482L106.033 20.761Z" fill="white"/>
<path d="M79.4355 28.9828L81.0799 14.312C81.1655 13.5326 81.2126 12.9417 81.2212 12.5391C81.2298 12.1623 81.1441 11.9097 80.9643 11.7812C80.8358 11.687 80.5275 11.6399 80.0393 11.6399C79.9708 11.6399 79.8895 11.6399 79.7952 11.6399V10.9976H83.5464L89.4815 26.1822L95.0311 10.9976H96.9324L98.9878 28.9828H97.0865L95.1853 12.5905L89.2245 28.9828H88.6079L82.0305 12.1281L80.1293 28.9828H79.4355Z" fill="white"/>
<path d="M68.8705 10.9976L75.936 28.9828H74.0347L71.4141 22.3025H63.475L60.9828 28.9828H60.2891L66.9949 10.9976H68.8705ZM64.1173 20.761H70.8231L67.406 11.9482L64.1173 20.761Z" fill="white"/>
<path d="M46.1016 14.2092L46.3328 10.9976H60.284L60.5153 14.2092H59.8472L59.8216 13.9523C59.813 13.7724 59.7573 13.5583 59.6546 13.3099C59.5603 13.053 59.4233 12.8004 59.2435 12.552C59.0722 12.2951 58.7938 12.081 58.4084 11.9097C58.0316 11.7298 57.5863 11.6399 57.0724 11.6399H54.1434V28.9828H52.4734V11.6399H49.5444C49.0305 11.6399 48.5809 11.7341 48.1955 11.9225C47.8187 12.1024 47.5404 12.3079 47.3605 12.5391C47.1892 12.7618 47.0522 13.023 46.9494 13.3228C46.8552 13.614 46.7996 13.8195 46.7824 13.9394C46.7739 14.0508 46.7696 14.1407 46.7696 14.2092H46.1016Z" fill="white"/>
</svg>
